<svg id="Layer_1" enable-background="new 0 0 512 512" height="512" viewBox="0 0 512 512" width="512" xmlns="http://www.w3.org/2000/svg"><g><path d="m504.5 497h-248.5v15h248.5c4.143 0 7.5-3.357 7.5-7.5s-3.357-7.5-7.5-7.5z" fill="#9bc9e0"/><circle cx="255.984" cy="256" fill="#9bc9e0" r="168.706"/><path d="m437.02 74.98c-48.35-48.35-112.64-74.98-181.02-74.98-5.01 0-10 .14-14.97.44-.01-.01-.02-.01-.03 0-62.74 3.59-121.22 29.74-166.02 74.54-48.35 48.35-74.98 112.64-74.98 181.02s26.63 132.67 74.98 181.02c44.8 44.8 103.28 70.95 166.02 74.54.01.01.02.01.03 0 4.97.3 9.96.44 14.97.44 68.38 0 132.67-26.63 181.02-74.98s74.98-112.64 74.98-181.02-26.63-132.67-74.98-181.02zm26.61 181.02c0 27.7-22.54 50.23-50.23 50.23-27.7 0-50.23-22.53-50.23-50.23s22.53-50.23 50.23-50.23c27.69 0 50.23 22.53 50.23 50.23zm-207.63-207.63c27.7 0 50.23 22.54 50.23 50.23 0 27.7-22.53 50.23-50.23 50.23s-50.23-22.53-50.23-50.23c0-27.69 22.53-50.23 50.23-50.23zm-157.4 257.86c-27.69 0-50.23-22.53-50.23-50.23s22.54-50.23 50.23-50.23c27.7 0 50.23 22.53 50.23 50.23s-22.53 50.23-50.23 50.23zm107.17 107.17c0-27.7 22.53-50.23 50.23-50.23s50.23 22.53 50.23 50.23c0 27.69-22.53 50.23-50.23 50.23s-50.23-22.54-50.23-50.23z" fill="#325a93"/><path d="m512 256c0 68.38-26.63 132.67-74.98 181.02s-112.64 74.98-181.02 74.98c-5.01 0-10-.14-14.97-.44 62.73-3.6 121.2-29.75 165.99-74.54 48.35-48.35 74.98-112.64 74.98-181.02s-26.63-132.67-74.98-181.02c-44.79-44.79-103.26-70.94-165.99-74.54 4.97-.3 9.96-.44 14.97-.44 68.38 0 132.67 26.63 181.02 74.98s74.98 112.64 74.98 181.02z" fill="#132d77"/><path d="m306.21 256c0 27.7-22.53 50.23-50.23 50.23-4.67 0-9.2-.64-13.49-1.85-21.17-5.9-36.74-25.35-36.74-48.38s15.57-42.48 36.74-48.38c4.29-1.21 8.82-1.85 13.49-1.85 27.7 0 50.23 22.53 50.23 50.23z" fill="#132d77"/><path d="m306.21 256c0 27.7-22.53 50.23-50.23 50.23-4.67 0-9.2-.64-13.49-1.85 21.16-5.91 36.72-25.36 36.72-48.38s-15.56-42.47-36.72-48.38c4.29-1.21 8.82-1.85 13.49-1.85 27.7 0 50.23 22.53 50.23 50.23z" fill="#051b4c"/><g fill="#132d77"><path d="m156.643 141.765c-2.93-2.928-7.678-2.929-10.607.001-2.929 2.929-2.929 7.677.001 10.606l34.545 34.545c1.465 1.464 3.385 2.196 5.304 2.196s3.839-.732 5.304-2.197c2.929-2.929 2.929-7.677-.001-10.606z"/><path d="m331.387 316.509c-2.93-2.928-7.678-2.928-10.607 0-2.929 2.93-2.929 7.678 0 10.607l34.545 34.545c1.465 1.464 3.385 2.196 5.304 2.196s3.839-.732 5.304-2.196c2.929-2.93 2.929-7.678 0-10.607z"/><path d="m326.083 189.113c1.919 0 3.839-.732 5.304-2.196l34.545-34.545c2.929-2.93 2.929-7.678 0-10.607-2.93-2.928-7.678-2.928-10.607 0l-34.545 34.545c-2.929 2.93-2.929 7.678 0 10.607 1.464 1.464 3.384 2.196 5.303 2.196z"/><path d="m180.581 316.509-34.545 34.545c-2.93 2.93-2.93 7.678-.001 10.606 1.465 1.465 3.384 2.197 5.304 2.197 1.919 0 3.839-.732 5.304-2.196l34.545-34.545c2.93-2.93 2.93-7.678.001-10.606-2.93-2.929-7.678-2.93-10.608-.001z"/></g></g></svg>